<svg width="26" height="27" viewBox="0 0 26 27" fill="none" xmlns="http://www.w3.org/2000/svg">
<path d="M16.8935 13.7545C16.8935 14.5645 16.6533 15.3563 16.2033 16.0298C15.7533 16.7033 15.1137 17.2282 14.3653 17.5382C13.617 17.8481 12.7936 17.9292 11.9991 17.7712C11.2047 17.6132 10.475 17.2232 9.90222 16.6504C9.32947 16.0777 8.93942 15.3479 8.7814 14.5535C8.62338 13.7591 8.70448 12.9356 9.01445 12.1873C9.32442 11.4389 9.84934 10.7993 10.5228 10.3493C11.1963 9.89932 11.9881 9.65913 12.7981 9.65913C13.8832 9.66251 14.923 10.0951 15.6903 10.8624C16.4576 11.6297 16.8901 12.6694 16.8935 13.7545ZM25.5962 8.12336V19.3857C25.5962 21.2865 24.8411 23.1094 23.4971 24.4535C22.153 25.7975 20.3301 26.5526 18.4293 26.5526H7.16694C5.26615 26.5526 3.44321 25.7975 2.09915 24.4535C0.755086 23.1094 0 21.2865 0 19.3857V8.12336C0 6.22257 0.755086 4.39963 2.09915 3.05557C3.44321 1.71151 5.26615 0.956421 7.16694 0.956421H18.4293C20.3301 0.956421 22.153 1.71151 23.4971 3.05557C24.8411 4.39963 25.5962 6.22257 25.5962 8.12336ZM18.9412 13.7545C18.9412 12.5395 18.5809 11.3518 17.9059 10.3416C17.2309 9.33138 16.2715 8.54401 15.149 8.07905C14.0265 7.61409 12.7913 7.49244 11.5996 7.72947C10.408 7.96651 9.31341 8.55158 8.45428 9.4107C7.59516 10.2698 7.01008 11.3644 6.77305 12.5561C6.53602 13.7477 6.65767 14.9829 7.12263 16.1054C7.58759 17.2279 8.37496 18.1873 9.38519 18.8623C10.3954 19.5373 11.5831 19.8976 12.7981 19.8976C14.4274 19.8976 15.9899 19.2504 17.1419 18.0983C18.294 16.9463 18.9412 15.3838 18.9412 13.7545ZM20.9889 7.09951C20.9889 6.79576 20.8988 6.49884 20.7301 6.24628C20.5613 5.99373 20.3215 5.79688 20.0408 5.68064C19.7602 5.5644 19.4514 5.53399 19.1535 5.59325C18.8556 5.65251 18.5819 5.79877 18.3672 6.01356C18.1524 6.22834 18.0061 6.50199 17.9469 6.7999C17.8876 7.09781 17.918 7.4066 18.0342 7.68723C18.1505 7.96785 18.3473 8.20771 18.5999 8.37646C18.8524 8.54521 19.1494 8.63528 19.4531 8.63528C19.8604 8.63528 20.2511 8.47348 20.5391 8.18547C20.8271 7.89745 20.9889 7.50682 20.9889 7.09951Z" fill="black"/>
</svg>
