<svg width="23" height="23" viewBox="0 0 23 23" fill="none" xmlns="http://www.w3.org/2000/svg">
<path d="M20.7751 22.7593C17.9136 22.7593 15.2217 22.2182 12.6992 21.1359C10.1767 20.0535 7.97555 18.5721 6.09579 16.6914C4.21603 14.8115 2.73026 12.6101 1.6385 10.0874C0.546745 7.5647 0.00123158 4.86404 0.00196529 1.98544C-0.0163774 1.65524 0.0936789 1.36613 0.332134 1.11812C0.57059 0.870102 0.864074 0.746094 1.21259 0.746094H5.50479C5.83496 0.746094 6.11927 0.870102 6.35772 1.11812C6.59618 1.36613 6.71541 1.66405 6.71541 2.01186C6.71541 2.81901 6.77043 3.5803 6.88049 4.29573C6.99055 5.01116 7.1648 5.6899 7.40326 6.33196C7.49497 6.53374 7.51332 6.73993 7.45829 6.95053C7.40326 7.16112 7.2932 7.35851 7.12812 7.54268L4.37671 10.2943C5.16545 11.9086 6.28435 13.4404 7.73343 14.8896C9.1825 16.3388 10.7416 17.4945 12.4108 18.3567L15.1622 15.605C15.3273 15.4399 15.5199 15.3299 15.74 15.2748C15.9601 15.2198 16.1803 15.2381 16.4004 15.3299C17.0791 15.55 17.7808 15.7199 18.5057 15.8395C19.2307 15.9591 19.9779 16.0185 20.7476 16.0178C21.0961 16.0178 21.3944 16.1462 21.6424 16.403C21.8904 16.6598 22.014 16.9717 22.0132 17.3386V21.5486C22.0132 21.8788 21.894 22.1632 21.6556 22.4016C21.4171 22.6401 21.1236 22.7593 20.7751 22.7593ZM14.4469 19.4574C15.2723 19.7692 16.1344 20.0169 17.0332 20.2003C17.932 20.3837 18.8583 20.503 19.8121 20.558V18.1916C19.2435 18.1549 18.6609 18.0907 18.0644 17.999C17.4679 17.9073 16.8765 17.7697 16.2903 17.5862L14.4469 19.4574ZM19.8121 11.7527C19.8121 9.29457 18.9592 7.21249 17.2533 5.50646C15.5474 3.80043 13.4655 2.94742 11.0076 2.94742V0.746094C12.5301 0.746094 13.9608 1.0352 15.2998 1.61342C16.6388 2.19163 17.8036 2.97567 18.7941 3.96553C19.7846 4.95613 20.5689 6.121 21.1471 7.46014C21.7253 8.79927 22.014 10.2301 22.0132 11.7527H19.8121ZM15.4099 11.7527C15.4099 10.542 14.9788 9.50553 14.1167 8.64335C13.2546 7.78116 12.2182 7.35007 11.0076 7.35007V5.14874C12.8419 5.14874 14.401 5.7908 15.685 7.0749C16.969 8.35901 17.611 9.91828 17.611 11.7527H15.4099ZM3.30366 8.25811L5.11959 6.41451C4.97285 5.88252 4.84885 5.32302 4.7476 4.736C4.64635 4.14898 4.57774 3.55278 4.54179 2.94742H2.23061C2.26729 3.82795 2.37735 4.70848 2.56078 5.58901C2.7442 6.46954 2.99183 7.35924 3.30366 8.25811Z" fill="black"/>
</svg>
