<svg width="30" height="24" viewBox="0 0 30 24" fill="none" xmlns="http://www.w3.org/2000/svg">
<path d="M29.1547 2.88114C28.1036 3.35894 26.9705 3.67292 25.7965 3.82308C26.9978 3.09956 27.9261 1.95285 28.363 0.574069C27.2299 1.25663 25.974 1.73443 24.6498 2.00746C23.5713 0.833445 22.0561 0.150879 20.336 0.150879C17.1279 0.150879 14.5069 2.77193 14.5069 6.00729C14.5069 6.47144 14.5615 6.92193 14.657 7.34512C9.79718 7.0994 5.46971 4.76502 2.58928 1.22933C2.08418 2.08936 1.79751 3.09956 1.79751 4.16436C1.79751 6.19841 2.82136 8.00038 4.40491 9.02423C3.43566 9.02423 2.53468 8.7512 1.7429 8.34167V8.38262C1.7429 11.2221 3.7633 13.5974 6.43895 14.1298C5.57991 14.3649 4.67806 14.3976 3.80425 14.2254C4.17503 15.3891 4.90118 16.4074 5.88064 17.1371C6.86009 17.8668 8.04359 18.2712 9.26477 18.2935C7.19473 19.9322 4.62878 20.818 1.98863 20.8053C1.52448 20.8053 1.06034 20.778 0.596191 20.7234C3.18994 22.3889 6.27514 23.3581 9.57875 23.3581C20.336 23.3581 26.247 14.4301 26.247 6.68986C26.247 6.43048 26.247 6.18476 26.2334 5.92538C27.3801 5.1063 28.363 4.0688 29.1547 2.88114Z" fill="black"/>
</svg>
