<svg width="28" height="20" viewBox="0 0 28 20" fill="none" xmlns="http://www.w3.org/2000/svg">
<path d="M11.3783 13.8499L18.4634 9.75453L11.3783 5.65913V13.8499ZM27.1592 3.16094C27.3367 3.80255 27.4596 4.66259 27.5415 5.75469C27.637 6.8468 27.678 7.78874 27.678 8.60782L27.7599 9.75453C27.7599 12.7442 27.5415 14.942 27.1592 16.3481C26.818 17.5767 26.0262 18.3685 24.7976 18.7098C24.156 18.8873 22.9819 19.0101 21.18 19.092C19.4053 19.1876 17.7808 19.2285 16.2791 19.2285L14.1086 19.3104C8.38869 19.3104 4.8257 19.092 3.41961 18.7098C2.19099 18.3685 1.39922 17.5767 1.05793 16.3481C0.880466 15.7065 0.757604 14.8465 0.675696 13.7544C0.580137 12.6623 0.539183 11.7203 0.539183 10.9012L0.457275 9.75453C0.457275 6.76489 0.675696 4.56703 1.05793 3.16094C1.39922 1.93233 2.19099 1.14055 3.41961 0.799266C4.06122 0.621799 5.23523 0.498937 7.03721 0.417029C8.81188 0.32147 10.4364 0.280516 11.938 0.280516L14.1086 0.198608C19.8285 0.198608 23.3915 0.417029 24.7976 0.799266C26.0262 1.14055 26.818 1.93233 27.1592 3.16094Z" fill="black"/>
</svg>
